<?xml version="1.0" encoding="utf-8"?>
<!-- Generator: Adobe Illustrator 19.0.0, SVG Export Plug-In . SVG Version: 6.00 Build 0)  -->
<svg version="1.1" id="Layer_1" xmlns="http://www.w3.org/2000/svg" xmlns:xlink="http://www.w3.org/1999/xlink" x="0px" y="0px"
	 viewBox="0 0 612 300" style="enable-background:new 0 0 612 300;" xml:space="preserve">
<style type="text/css">
	.st0{display:none;}
	.st1{display:inline;}
	.st2{font-family:'Cinzel-Regular';}
	.st3{font-size:58.8037px;}
	.st4{font-size:44.8162px;}
	.st5{fill:none;stroke:#000000;stroke-width:4;stroke-miterlimit:10;}
</style>
<g id="XMLID_15_">
	<g id="XMLID_1_">
		<g id="XMLID_18_">
			<g id="XMLID_23_">
				<path id="XMLID_24_" d="M269.9,179.2l-68.4-68.4l68.4-68.4l68.4,68.4L269.9,179.2z M206.4,110.9l63.4,63.4l63.4-63.4l-63.4-63.4
					L206.4,110.9z"/>
			</g>
			<g id="XMLID_19_">
				<path id="XMLID_20_" d="M302.6,144.9h-66.8V78.1h66.8V144.9z M239.4,141.3H299V81.7h-59.6V141.3z"/>
			</g>
		</g>
		<g id="XMLID_2_">
			<g id="XMLID_3_" class="st0">
				<path id="XMLID_5_" class="st1" d="M333.5,111.5c0-0.2,0-0.3,0-0.5c0-0.7,0-1.3,0-2l-4.6-4.6c0.2,2.2,0.4,4.4,0.4,6.6
					c0,1.7-0.1,3.3-0.2,5L333.5,111.5z"/>
				<path id="XMLID_6_" class="st1" d="M269.2,51c2.2,0,4.4,0.1,6.6,0.4l-4.6-4.6c-0.7,0-1.3,0-2,0c-0.7,0-1.3,0-2,0l-4.6,4.6
					C264.7,51.1,266.9,51,269.2,51z"/>
				<path id="XMLID_8_" class="st1" d="M209.1,111.1c0-2.2,0.1-4.4,0.4-6.6l-4.6,4.6c0,0.7,0,1.3,0,2c0,0.2,0,0.3,0,0.5l4.5,4.5
					C209.2,114.4,209.1,112.7,209.1,111.1z"/>
				<path id="XMLID_9_" class="st1" d="M269.2,171.1c-1.7,0-3.3-0.1-5-0.2l4.5,4.5c0.2,0,0.3,0,0.5,0c0.2,0,0.3,0,0.5,0l4.5-4.5
					C272.5,171,270.8,171.1,269.2,171.1z"/>
			</g>
			<path id="XMLID_10_" d="M213.2,89.4c6.1-15.7,18.6-28.2,34.3-34.3l6.5-6.5c-23.3,5.6-41.7,24.1-47.4,47.4L213.2,89.4z"/>
			<path id="XMLID_11_" d="M326,130.4c-6,17.6-19.9,31.5-37.5,37.5l-6.1,6.1c24.9-5.2,44.5-24.9,49.8-49.8L326,130.4z"/>
			<path id="XMLID_12_" d="M290.8,55.1c15.7,6.1,28.2,18.6,34.3,34.3l6.5,6.5c-5.6-23.3-24.1-41.7-47.4-47.4L290.8,55.1z"/>
			<path id="XMLID_34_" d="M249.8,167.9c-17.6-6-31.5-19.9-37.5-37.5l-6.1-6.1c5.2,24.9,24.9,44.5,49.8,49.8L249.8,167.9z"/>
		</g>
		<g id="XMLID_16_" class="st0">
			<path id="XMLID_27_" class="st1" d="M224,111.1c0-9.9,3.2-19.1,8.7-26.5v-3.2l-5.1,5.1c-4.3,7.2-6.8,15.7-6.8,24.7
				c0,7.7,1.8,14.9,5,21.4l6.9,6.9v-1.7C227.2,130.1,224,121,224,111.1z"/>
			<path id="XMLID_28_" class="st1" d="M310.8,86.4l-4.4-4.4v3.5c5,7.3,8,16.1,8,25.6c0,9.5-3,18.3-8,25.6v2l6.2-6.2
				c3.2-6.5,5-13.7,5-21.4C317.6,102.1,315.1,93.6,310.8,86.4z"/>
			<path id="XMLID_29_" class="st1" d="M290.6,154.5l4.8-4.8h-2.8c-6.8,4.2-14.9,6.6-23.5,6.6s-16.6-2.4-23.5-6.6H243l4.8,4.8
				c6.5,3.2,13.7,5,21.4,5C276.8,159.4,284.1,157.6,290.6,154.5z"/>
			<path id="XMLID_30_" class="st1" d="M244.5,69.4l-6.5,6.5h2.8c7.8-6.3,17.6-10.1,28.4-10.1s20.6,3.8,28.4,10.1h2.8l-6.5-6.5
				c-7.2-4.3-15.7-6.8-24.7-6.8C260.2,62.7,251.7,65.1,244.5,69.4z"/>
		</g>
		<text id="XMLID_4_" transform="matrix(1 0 0 1 250.4248 134.2525)" class="st2 st3">R</text>
	</g>
	<text id="XMLID_7_" transform="matrix(1 0 0 1 34.0513 243.5626)" class="st2 st4">RICODIVITA</text>
</g>
<circle id="XMLID_13_" class="st5" cx="269.1" cy="111.4" r="47.1"/>
</svg>
