<?xml version="1.0" encoding="utf-8"?>
<!-- Generator: Adobe Illustrator 19.0.0, SVG Export Plug-In . SVG Version: 6.00 Build 0)  -->
<svg version="1.1" id="Layer_1" xmlns="http://www.w3.org/2000/svg" xmlns:xlink="http://www.w3.org/1999/xlink" x="0px" y="0px"
	 viewBox="0 0 300 300" style="enable-background:new 0 0 300 300;" xml:space="preserve">
<style type="text/css">
	.st0{display:none;}
	.st1{display:inline;}
	.st2{font-family:'Cinzel-Regular';}
	.st3{font-size:58.8037px;}
</style>
<g id="XMLID_1_">
	<g id="XMLID_18_">
		<g id="XMLID_23_">
			<path id="XMLID_24_" d="M149.9,218.2l-68.4-68.4l68.4-68.4l68.4,68.4L149.9,218.2z M86.4,149.9l63.4,63.4l63.4-63.4l-63.4-63.4
				L86.4,149.9z"/>
		</g>
		<g id="XMLID_19_">
			<path id="XMLID_20_" d="M182.6,183.9h-66.8v-66.8h66.8V183.9z M119.4,180.3H179v-59.6h-59.6V180.3z"/>
		</g>
	</g>
	<g id="XMLID_2_">
		<g id="XMLID_3_" class="st0">
			<path id="XMLID_5_" class="st1" d="M213.5,150.5c0-0.2,0-0.3,0-0.5c0-0.7,0-1.3,0-2l-4.6-4.6c0.2,2.2,0.4,4.4,0.4,6.6
				c0,1.7-0.1,3.3-0.2,5L213.5,150.5z"/>
			<path id="XMLID_6_" class="st1" d="M149.2,90c2.2,0,4.4,0.1,6.6,0.4l-4.6-4.6c-0.7,0-1.3,0-2,0s-1.3,0-2,0l-4.6,4.6
				C144.7,90.1,146.9,90,149.2,90z"/>
			<path id="XMLID_8_" class="st1" d="M89.1,150.1c0-2.2,0.1-4.4,0.4-6.6l-4.6,4.6c0,0.7,0,1.3,0,2c0,0.2,0,0.3,0,0.5l4.5,4.5
				C89.2,153.4,89.1,151.7,89.1,150.1z"/>
			<path id="XMLID_9_" class="st1" d="M149.2,210.1c-1.7,0-3.3-0.1-5-0.2l4.5,4.5c0.2,0,0.3,0,0.5,0c0.2,0,0.3,0,0.5,0l4.5-4.5
				C152.5,210,150.8,210.1,149.2,210.1z"/>
		</g>
		<path id="XMLID_10_" d="M93.2,128.4c6.1-15.7,18.6-28.2,34.3-34.3l6.5-6.5c-23.3,5.6-41.7,24.1-47.4,47.4L93.2,128.4z"/>
		<path id="XMLID_11_" d="M206,169.4c-6,17.6-19.9,31.5-37.5,37.5l-6.1,6.1c24.9-5.2,44.5-24.9,49.8-49.8L206,169.4z"/>
		<path id="XMLID_12_" d="M170.8,94.1c15.7,6.1,28.2,18.6,34.3,34.3l6.5,6.5c-5.6-23.3-24.1-41.7-47.4-47.4L170.8,94.1z"/>
		<path id="XMLID_34_" d="M129.8,206.9c-17.6-6-31.5-19.9-37.5-37.5l-6.1-6.1c5.2,24.9,24.9,44.5,49.8,49.8L129.8,206.9z"/>
	</g>
	<g id="XMLID_16_" class="st0">
		<path id="XMLID_27_" class="st1" d="M104,150.1c0-9.9,3.2-19.1,8.7-26.5v-3.2l-5.1,5.1c-4.3,7.2-6.8,15.7-6.8,24.7
			c0,7.7,1.8,14.9,5,21.4l6.9,6.9v-1.7C107.2,169.1,104,160,104,150.1z"/>
		<path id="XMLID_28_" class="st1" d="M190.8,125.4l-4.4-4.4v3.5c5,7.3,8,16.1,8,25.6c0,9.5-3,18.3-8,25.6v2l6.2-6.2
			c3.2-6.5,5-13.7,5-21.4C197.6,141.1,195.1,132.6,190.8,125.4z"/>
		<path id="XMLID_29_" class="st1" d="M170.6,193.5l4.8-4.8h-2.8c-6.8,4.2-14.9,6.6-23.5,6.6c-8.6,0-16.6-2.4-23.5-6.6H123l4.8,4.8
			c6.5,3.2,13.7,5,21.4,5C156.8,198.4,164.1,196.6,170.6,193.5z"/>
		<path id="XMLID_30_" class="st1" d="M124.5,108.4l-6.5,6.5h2.8c7.8-6.3,17.6-10.1,28.4-10.1s20.6,3.8,28.4,10.1h2.8l-6.5-6.5
			c-7.2-4.3-15.7-6.8-24.7-6.8C140.2,101.7,131.7,104.1,124.5,108.4z"/>
	</g>
	<text id="XMLID_4_" transform="matrix(1 0 0 1 130.4248 173.2525)" class="st2 st3">R</text>
</g>
<g id="XMLID_13_">
	<path id="XMLID_17_" d="M149.1,199.4c-27.1,0-49.1-22-49.1-49.1s22-49.1,49.1-49.1s49.1,22,49.1,49.1S176.2,199.4,149.1,199.4z
		 M149.1,105.3c-24.9,0-45.1,20.2-45.1,45.1s20.2,45.1,45.1,45.1s45.1-20.2,45.1-45.1S174,105.3,149.1,105.3z"/>
</g>
</svg>
